<svg width="550" height="157" viewBox="0 0 550 157" fill="none" xmlns="http://www.w3.org/2000/svg">
<g clip-path="url(#clip0_807_4481)">
<path d="M418.755 65.0826C418.74 65.0211 418.717 64.9596 418.709 64.8904C418.641 64.4675 418.664 64.0446 418.883 63.691C419.049 63.3911 419.358 63.1451 419.841 62.9913C422.083 62.2533 419.23 60.8924 417.245 61.0462C417.238 61.0385 417.23 61.0385 417.223 61.0462C415.245 60.8924 412.385 62.2609 414.626 62.9913C415.109 63.1451 415.411 63.3911 415.585 63.691C415.804 64.0446 415.834 64.4675 415.759 64.8904C415.751 64.9519 415.728 65.0134 415.713 65.0826C393.374 65.8745 375.51 83.996 375.51 106.246H458.958C458.951 83.996 441.087 65.8745 418.755 65.0826Z" fill="#FF680D"/>
<path d="M437.528 114.034C433.544 123.714 424.562 130.472 414.132 130.472C403.702 130.472 394.721 123.714 390.736 114.034H400.88C403.212 116.948 406.676 118.794 410.532 118.794C414.389 118.794 417.853 116.948 420.185 114.034H437.528Z" fill="#FF680D"/>
<path d="M467.447 110.936C467.447 112.643 466.269 114.027 464.82 114.027H367.576C366.127 114.027 364.949 112.643 364.949 110.936C364.949 109.23 366.127 107.846 367.576 107.846H464.82C466.277 107.846 467.447 109.23 467.447 110.936Z" fill="#FF680D"/>
<path d="M427.861 113.804C433.892 117.248 435.273 125.344 430.654 130.488C414.465 148.509 389.945 158.497 364.398 155.56C362.549 155.352 360.7 155.068 358.851 154.722C317.296 146.895 289.938 107.154 297.862 66.1129C304.7 30.7002 335.59 5.73603 370.632 4.57508C379.069 4.2983 385.62 11.7714 384.043 19.9595L383.937 20.5054C382.096 30.0544 374.458 37.3122 364.805 39.2574C348.156 42.6095 334.406 55.7336 331.402 73.3707C327.462 96.4897 344.013 118.632 367.537 121.792C370.02 122.123 372.488 122.238 374.918 122.138C384.352 121.769 393.22 118.271 400.262 112.512C404.231 109.26 409.484 107.968 414.556 108.914C419.363 109.821 423.839 111.505 427.861 113.804Z" fill="#FF680D"/>
<path d="M406.822 11.4253C375.592 -2.52146 337.207 5.10542 314.822 31.5996C315.32 31.5919 315.826 31.6304 316.324 31.7611C323.418 33.6755 328.716 38.6806 333.984 43.3013C335.916 44.9928 337.901 46.6227 339.901 48.2373C341.192 48.491 353.977 41.9174 364.807 39.2649C373.01 37.2582 380.905 36.9507 385.742 38.2347C395.154 40.7334 405.229 37.881 411.244 30.6001L411.591 30.1849C416.746 23.9343 414.399 14.8082 406.822 11.4253Z" fill="#FF680D"/>
<path d="M417.672 15.4079C387.122 -2.10621 346.88 1.58422 321.039 26.164C321.552 26.2101 322.065 26.3024 322.564 26.4869C329.643 29.1855 334.541 34.8442 339.454 40.103C341.258 42.0328 343.114 43.9011 345.001 45.754C346.299 46.1538 360.141 40.8104 371.544 39.265C380.186 38.0964 388.322 38.6192 393.152 40.4413C402.54 43.9857 413.197 42.1481 420.163 35.3824L420.563 34.9903C426.517 29.1932 425.091 19.6596 417.672 15.4079Z" fill="#FF680D"/>
<path d="M285.031 141.851C285.031 149.032 279.318 154.852 272.269 154.852H199.817C190.156 154.852 182.33 146.879 182.33 137.038V18.7288C182.33 10.1485 189.16 3.18286 197.59 3.18286H272.654C279.492 3.18286 285.039 8.83382 285.039 15.7995C285.039 23.2649 279.099 29.3157 271.771 29.3157H230.7C223.862 29.3157 218.315 34.9667 218.315 41.9323V47.5602C218.315 54.5259 223.862 60.1769 230.7 60.1769H259.96C266.767 60.1769 272.299 65.774 272.344 72.7012C272.397 79.7054 266.835 85.4101 259.96 85.4101H229.801C222.813 85.4101 217.213 91.2918 217.417 98.4112L217.952 116.594C218.156 123.414 223.635 128.834 230.337 128.834H272.277C279.318 128.85 285.031 134.67 285.031 141.851Z" fill="#FF680D"/>
<path d="M547.422 26.971L517.241 83.9958C515.218 87.8092 514.162 92.0763 514.162 96.4125V135.808C514.162 145.772 508.23 154.929 498.456 155.036H496.516C485.754 155.152 479.332 144.726 480.607 133.84L482.962 96.2972C483.422 92.3607 481.46 86.3407 479.505 82.904L447.634 26.8711C441.634 16.3149 449.105 3.09859 461.083 3.09859C468.373 3.09859 475.075 7.21188 478.479 13.7778L491.03 37.9885C494.275 44.2468 503.098 44.1699 506.237 37.8578L519.135 11.9018C521.822 6.48917 527.241 3.05246 533.195 2.99095C545.354 2.86025 553.188 16.0689 547.422 26.971Z" fill="#FF680D"/>
<path d="M153.275 125.836H121.003C120.641 125.836 120.286 125.952 119.999 126.174C119.969 126.198 119.939 126.221 119.909 126.244C118.95 126.959 119.003 128.412 119.992 129.096C120.694 129.58 121.38 130.134 122.045 130.741C124.135 132.679 123.079 135.985 121.267 137.461C114.43 143.035 106.135 146.011 98.3542 149.547C96.9807 150.17 95.6222 150.831 94.2713 151.5C92.6486 152.307 93.1996 154.791 95.0109 154.791H153.282C160.49 154.791 166.339 148.309 166.339 140.313C166.339 132.317 160.49 125.836 153.275 125.836Z" fill="#FF680D"/>
<path d="M89.017 154.852C67.9303 154.852 46.8513 154.86 25.7646 154.844C21.893 154.844 19.0553 152.815 18.4137 149.693C17.493 145.211 20.3232 141.582 24.9571 141.543C33.1457 141.467 41.3343 141.52 49.5154 141.52C50.3682 141.52 51.2135 141.543 52.0663 141.497C56.2776 141.282 59.2889 138.199 59.2964 134.124C59.304 130.134 56.2021 126.989 51.9531 126.943C45.2362 126.859 38.5117 126.92 31.7948 126.92C23.5307 126.92 15.2666 126.943 7.00251 126.897C3.54594 126.874 1.11577 124.837 0.157286 121.346C-0.438936 119.178 0.821431 115.887 3.04783 114.673C4.35348 113.965 5.95347 113.458 7.42515 113.45C25.342 113.381 43.2588 113.419 61.1757 113.427C62.6398 113.427 64.1115 113.45 65.5756 113.366C69.7416 113.112 72.3907 110.183 72.3303 105.969C72.2775 101.925 69.5379 99.0036 65.4322 98.9959C51.1456 98.9421 36.8589 99.0651 22.5647 98.9344C20.5345 98.9191 18.2402 98.2809 16.5572 97.1584C14.2176 95.59 13.7043 92.4454 14.6553 89.9544C15.7572 87.0866 17.9458 85.5336 21.1005 85.5259C32.225 85.5028 43.3419 85.5105 54.4663 85.5105C55.855 85.5105 57.2512 85.5336 58.6398 85.4721C62.8209 85.3029 65.7794 82.1276 65.6662 77.9836C65.553 74.0164 62.4511 71.1179 58.3455 71.0871C53.9455 71.0487 49.5305 71.2101 45.1532 70.8334C41.1909 70.4951 38.9947 67.4582 39.2438 63.5371C39.4551 60.2234 42.3834 57.6247 46.1267 57.5709C50.3003 57.5094 54.4663 57.5632 58.6398 57.5632C63.1983 57.5632 67.7568 57.5555 72.3077 57.5632C76.8737 57.5709 79.8019 54.5033 79.6887 49.821C79.5831 45.7231 76.3982 43.0706 72.0888 43.0937C61.9077 43.1783 51.7116 43.0937 41.523 43.0552C39.674 43.0476 37.8023 43.1552 35.9834 42.8784C32.1495 42.3018 29.8023 39.434 30.074 35.9666C30.3608 32.2608 33.2212 29.6544 37.1381 29.6467C45.2513 29.6236 53.3569 29.6775 61.47 29.6544C64.8662 29.6467 68.27 29.6851 71.6511 29.4007C75.6737 29.0624 78.0963 25.9332 77.885 21.7815C77.6888 17.9988 74.7303 15.1695 70.8435 15.0772C69.2964 15.0388 67.7492 15.1003 66.2096 15.0157C62.5643 14.8158 59.787 12.0557 59.7115 8.64972C59.6361 5.07462 62.2474 1.94545 65.9605 1.81475C71.9001 1.60716 77.8472 1.75324 83.7868 1.76093C90.6547 1.76093 97.5226 1.7148 104.39 1.79168C110.587 1.86088 114.888 6.29708 114.209 12.5862C113.583 18.414 112.202 24.1572 111.1 29.9312C109.515 38.25 107.915 46.5688 106.27 54.88C103.681 67.9579 101.032 81.0205 98.4433 94.0984C96.5641 103.563 94.6999 113.027 92.9188 122.515C92.2924 125.867 92.4585 125.951 95.8018 125.944C112.556 125.898 129.319 125.836 146.073 125.805C148.028 125.798 149.99 125.951 151.945 125.967C153.598 125.982 155.243 126.182 156.813 126.713C160.299 127.897 162.564 129.619 163.862 132.702C164.797 134.924 164.911 137.415 164.42 139.783C164.118 141.228 163.862 142.689 163.567 144.142C163.009 146.902 161.786 149.509 159.869 151.538C157.998 153.514 155.673 154.775 152.503 154.783C136.903 154.821 121.303 154.821 105.696 154.829C100.134 154.837 94.5716 154.829 89.017 154.829C89.017 154.821 89.017 154.837 89.017 154.852Z" fill="#FF680D"/>
<path d="M23.4265 69.4801C18.3473 69.4032 15.7737 67.8194 14.8152 64.0598C13.8567 60.3002 16.6416 56.2253 20.4529 55.9486C22.2114 55.8179 23.9925 55.864 25.7585 55.9024C29.2981 55.9793 32.0453 58.478 32.3622 61.8456C32.6792 65.2669 30.5509 68.2038 27.0717 69.0188C25.8793 69.3033 24.6415 69.334 23.4265 69.4801Z" fill="#FF680D"/>
<path d="M44.4205 0.0541051C49.1374 0.0848586 51.9525 2.46057 51.9751 6.42778C51.9978 10.5411 48.9261 13.4319 44.5865 13.3704C40.2922 13.3089 37.296 10.4796 37.3564 6.52004C37.4167 3.06795 40.5714 -0.468705 44.4205 0.0541051Z" fill="#FF680D"/>
</g>
<defs>
<clipPath id="clip0_807_4481">
<rect width="549.354" height="156.067" fill="white"/>
</clipPath>
</defs>
</svg>
