<svg width="325" height="91" viewBox="0 0 325 91" fill="none" xmlns="http://www.w3.org/2000/svg">
<g clip-path="url(#clip0_803_4411)">
<path d="M247.734 37.9485C247.725 37.9126 247.712 37.8767 247.707 37.8364C247.667 37.5898 247.681 37.3432 247.81 37.137C247.908 36.9622 248.091 36.8187 248.377 36.7291C249.703 36.2987 248.016 35.5052 246.841 35.5949C246.837 35.5904 246.832 35.5904 246.828 35.5949C245.658 35.5052 243.966 36.3032 245.292 36.7291C245.578 36.8187 245.756 36.9622 245.859 37.137C245.988 37.3432 246.006 37.5898 245.962 37.8364C245.957 37.8722 245.944 37.9081 245.935 37.9485C232.719 38.4102 222.15 48.9766 222.15 61.9503H271.519C271.514 48.9766 260.946 38.4102 247.734 37.9485Z" fill="white"/>
<path d="M258.844 66.4917C256.487 72.1358 251.174 76.0763 245.003 76.0763C238.833 76.0763 233.52 72.1358 231.162 66.4917H237.163C238.543 68.1907 240.592 69.2667 242.874 69.2667C245.155 69.2667 247.204 68.1907 248.584 66.4917H258.844Z" fill="white"/>
<path d="M276.542 64.685C276.542 65.6802 275.846 66.4871 274.988 66.4871H217.458C216.601 66.4871 215.904 65.6802 215.904 64.685C215.904 63.6897 216.601 62.8828 217.458 62.8828H274.988C275.85 62.8828 276.542 63.6897 276.542 64.685Z" fill="white"/>
<path d="M253.124 66.3569C256.692 68.3652 257.509 73.0858 254.776 76.0849C245.199 86.593 230.693 92.4164 215.579 90.7039C214.485 90.5829 213.391 90.417 212.297 90.2153C187.714 85.6516 171.528 62.4791 176.217 38.5489C180.262 17.9003 198.537 3.34412 219.267 2.66719C224.259 2.5058 228.134 6.86326 227.201 11.6376L227.139 11.9559C226.049 17.5238 221.531 21.7557 215.82 22.8899C205.971 24.8445 197.836 32.4969 196.059 42.7809C193.728 56.2612 203.519 69.1722 217.436 71.0147C218.905 71.2075 220.365 71.2747 221.803 71.2164C227.384 71.0012 232.631 68.9615 236.796 65.6037C239.145 63.7074 242.252 62.9543 245.253 63.5057C248.097 64.0347 250.745 65.0165 253.124 66.3569Z" fill="white"/>
<path d="M240.677 6.66169C222.201 -1.47043 199.493 2.97668 186.25 18.425C186.545 18.4205 186.844 18.443 187.139 18.5192C191.336 19.6354 194.47 22.5539 197.586 25.2481C198.729 26.2344 199.904 27.1848 201.087 28.1262C201.85 28.2741 209.414 24.4412 215.821 22.8946C220.674 21.7245 225.345 21.5452 228.207 22.2938C233.774 23.7508 239.735 22.0876 243.294 17.8422L243.499 17.6002C246.548 13.9555 245.16 8.6342 240.677 6.66169Z" fill="white"/>
<path d="M247.096 8.98396C229.022 -1.22827 205.216 0.923559 189.928 15.2556C190.231 15.2825 190.535 15.3363 190.83 15.4439C195.018 17.0175 197.915 20.3169 200.822 23.3833C201.889 24.5085 202.988 25.5979 204.104 26.6783C204.872 26.9114 213.06 23.7957 219.807 22.8946C224.919 22.2132 229.732 22.5181 232.59 23.5805C238.144 25.6472 244.449 24.5758 248.57 20.6307L248.806 20.4021C252.329 17.0219 251.485 11.463 247.096 8.98396Z" fill="white"/>
<path d="M168.626 82.711C168.626 86.8981 165.246 90.2917 161.075 90.2917H118.212C112.497 90.2917 107.867 85.6428 107.867 79.9046V10.9205C107.867 5.91754 111.908 1.85596 116.895 1.85596H161.303C165.348 1.85596 168.63 5.15095 168.63 9.21253C168.63 13.5655 165.116 17.0936 160.781 17.0936H136.483C132.438 17.0936 129.156 20.3886 129.156 24.4502V27.7317C129.156 31.7933 132.438 35.0883 136.483 35.0883H153.793C157.82 35.0883 161.093 38.3519 161.12 42.3911C161.151 46.4751 157.861 49.8014 153.793 49.8014H135.951C131.817 49.8014 128.504 53.2309 128.624 57.3821L128.942 67.9844C129.062 71.9608 132.304 75.1213 136.268 75.1213H161.08C165.246 75.1303 168.626 78.5239 168.626 82.711Z" fill="#F7F7F7"/>
<path d="M323.857 15.7264L306.002 48.9766C304.805 51.2002 304.18 53.6883 304.18 56.2167V79.1874C304.18 84.9974 300.671 90.3366 294.889 90.3994H293.741C287.374 90.4666 283.575 84.3877 284.329 78.0398L285.722 56.1494C285.995 53.8541 284.834 50.344 283.678 48.3401L264.822 15.6681C261.273 9.51297 265.693 1.80673 272.779 1.80673C277.092 1.80673 281.057 4.20513 283.07 8.03359L290.495 22.1505C292.415 25.7996 297.635 25.7548 299.492 22.0743L307.123 6.93974C308.712 3.78372 311.918 1.77983 315.441 1.74397C322.634 1.66776 327.268 9.36952 323.857 15.7264Z" fill="#F7F7F7"/>
<path d="M90.6773 73.373H71.5854C71.371 73.373 71.1612 73.4403 70.9915 73.5703C70.9737 73.5837 70.9558 73.5972 70.9379 73.6106C70.3709 74.0276 70.4022 74.8748 70.9871 75.2738C71.4023 75.5563 71.8086 75.879 72.2015 76.2332C73.4383 77.3629 72.8132 79.2906 71.7416 80.1513C67.6964 83.4015 62.7895 85.1364 58.1862 87.1986C57.3736 87.5617 56.5699 87.9472 55.7707 88.3372C54.8107 88.8079 55.1367 90.2559 56.2082 90.2559H90.6817C94.9457 90.2559 98.406 86.4768 98.406 81.8145C98.406 77.1522 94.9457 73.373 90.6773 73.373Z" fill="#F7F7F7"/>
<path d="M52.6628 90.2915C40.1879 90.2915 27.7175 90.296 15.2425 90.287C12.952 90.287 11.2732 89.1035 10.8937 87.2834C10.349 84.6699 12.0233 82.5539 14.7648 82.5315C19.6092 82.4866 24.4536 82.518 29.2936 82.518C29.7981 82.518 30.2982 82.5315 30.8027 82.5046C33.2941 82.3791 35.0756 80.5814 35.0801 78.2054C35.0845 75.8787 33.2495 74.0452 30.7357 74.0183C26.762 73.969 22.7837 74.0048 18.81 74.0048C13.9209 74.0048 9.03186 74.0183 4.1428 73.9914C2.09787 73.978 0.660175 72.79 0.0931327 70.7547C-0.259594 69.4905 0.486044 67.5718 1.80319 66.8635C2.57562 66.451 3.52218 66.1552 4.39283 66.1507C14.9925 66.1103 25.5922 66.1327 36.1918 66.1372C37.058 66.1372 37.9287 66.1507 38.7949 66.1014C41.2595 65.9534 42.8267 64.2454 42.791 61.7887C42.7597 59.4307 41.1389 57.7272 38.71 57.7227C30.258 57.6913 21.8059 57.763 13.3494 57.6868C12.1484 57.6778 10.791 57.3058 9.79536 56.6512C8.41124 55.7367 8.10763 53.9032 8.6702 52.4507C9.32208 50.7785 10.6169 49.873 12.4832 49.8685C19.0645 49.855 25.6413 49.8595 32.2225 49.8595C33.0441 49.8595 33.8701 49.873 34.6916 49.8371C37.1652 49.7385 38.9154 47.887 38.8485 45.4707C38.7815 43.1575 36.9464 41.4674 34.5175 41.4495C31.9145 41.427 29.3025 41.5212 26.7129 41.3015C24.3688 41.1043 23.0695 39.3335 23.2168 37.0472C23.3419 35.115 25.0742 33.5998 27.2888 33.5684C29.7579 33.5325 32.2225 33.5639 34.6916 33.5639C37.3884 33.5639 40.0852 33.5594 42.7776 33.5639C45.4788 33.5684 47.2112 31.7797 47.1442 29.0495C47.0817 26.6601 45.1975 25.1135 42.6481 25.1269C36.6249 25.1762 30.5929 25.1269 24.5652 25.1045C23.4713 25.1 22.364 25.1628 21.288 25.0014C19.0198 24.6652 17.6313 22.993 17.792 20.9712C17.9617 18.8104 19.6539 17.2907 21.9711 17.2862C26.7709 17.2728 31.5662 17.3041 36.366 17.2907C38.3752 17.2862 40.3888 17.3086 42.3891 17.1428C44.7689 16.9455 46.2021 15.1209 46.0771 12.7001C45.961 10.4945 44.2108 8.84476 41.9114 8.79096C40.9961 8.76855 40.0808 8.80441 39.1699 8.7551C37.0134 8.63854 35.3703 7.02915 35.3256 5.04319C35.281 2.95861 36.8259 1.13403 39.0226 1.05782C42.5365 0.936783 46.0548 1.02196 49.5687 1.02644C53.6317 1.02644 57.6948 0.999544 61.7578 1.04437C65.4235 1.08472 67.9685 3.6714 67.5667 7.33848C67.1961 10.7366 66.379 14.0854 65.7271 17.4521C64.7895 22.3027 63.8429 27.1532 62.8696 31.9993C61.3381 39.6249 59.771 47.2415 58.2395 54.867C57.1277 60.3856 56.0249 65.9041 54.9712 71.4361C54.6006 73.3907 54.6988 73.44 56.6768 73.4355C66.5889 73.4086 76.5054 73.3727 86.4175 73.3548C87.5739 73.3503 88.7348 73.44 89.8912 73.449C90.869 73.4579 91.8423 73.5745 92.771 73.8838C94.8338 74.5742 96.1733 75.5784 96.9412 77.3761C97.4949 78.6716 97.5619 80.1241 97.2716 81.5049C97.093 82.3477 96.9412 83.1994 96.7671 84.0467C96.4367 85.6561 95.7134 87.1758 94.5793 88.3593C93.472 89.5115 92.0968 90.2467 90.2216 90.2512C80.9926 90.2736 71.7637 90.2736 62.5303 90.2781C59.2396 90.2825 55.949 90.2781 52.6628 90.2781C52.6628 90.2736 52.6628 90.2825 52.6628 90.2915Z" fill="#F7F7F7"/>
<path d="M13.8574 40.5127C10.8525 40.4679 9.32996 39.5444 8.76292 37.3522C8.19587 35.1601 9.84342 32.7841 12.0982 32.6227C13.1385 32.5465 14.1922 32.5734 15.237 32.5958C17.3311 32.6406 18.9563 34.0976 19.1438 36.0611C19.3313 38.0561 18.0722 39.7686 16.0139 40.2438C15.3085 40.4096 14.5762 40.4276 13.8574 40.5127Z" fill="#F7F7F7"/>
<path d="M26.2793 0.031345C29.0698 0.0492769 30.7353 1.43452 30.7487 3.74773C30.762 6.14613 28.9448 7.83173 26.3775 7.79586C23.837 7.76 22.0644 6.11026 22.1001 3.80153C22.1359 1.78867 24.0022 -0.273498 26.2793 0.031345Z" fill="#F7F7F7"/>
</g>
<defs>
<clipPath id="clip0_803_4411">
<rect width="325" height="91" fill="white"/>
</clipPath>
</defs>
</svg>
