<svg width="550" height="157" viewBox="0 0 550 157" fill="none" xmlns="http://www.w3.org/2000/svg">
<g clip-path="url(#clip0_680_608)">
<path d="M418.755 65.0825C418.74 65.021 418.717 64.9594 418.709 64.8903C418.641 64.4674 418.664 64.0445 418.883 63.6909C419.049 63.391 419.358 63.145 419.841 62.9912C422.083 62.2531 419.23 60.8923 417.245 61.0461C417.238 61.0384 417.23 61.0384 417.223 61.0461C415.245 60.8923 412.385 62.2608 414.626 62.9912C415.109 63.145 415.411 63.391 415.585 63.6909C415.804 64.0445 415.834 64.4674 415.759 64.8903C415.751 64.9518 415.728 65.0133 415.713 65.0825C393.374 65.8744 375.51 83.9959 375.51 106.246H458.958C458.951 83.9959 441.087 65.8744 418.755 65.0825Z" fill="black"/>
<path d="M437.528 114.034C433.544 123.714 424.562 130.472 414.132 130.472C403.702 130.472 394.721 123.714 390.736 114.034H400.88C403.212 116.948 406.676 118.793 410.532 118.793C414.389 118.793 417.853 116.948 420.185 114.034H437.528Z" fill="black"/>
<path d="M467.447 110.936C467.447 112.643 466.269 114.027 464.82 114.027H367.576C366.127 114.027 364.949 112.643 364.949 110.936C364.949 109.23 366.127 107.846 367.576 107.846H464.82C466.277 107.846 467.447 109.23 467.447 110.936Z" fill="black"/>
<path d="M427.861 113.804C433.892 117.248 435.273 125.344 430.654 130.488C414.465 148.509 389.945 158.496 364.398 155.559C362.549 155.352 360.7 155.067 358.851 154.721C317.296 146.895 289.938 107.153 297.862 66.1128C304.7 30.7001 335.59 5.73591 370.632 4.57496C379.069 4.29818 385.62 11.7713 384.043 19.9594L383.937 20.5053C382.096 30.0543 374.458 37.3121 364.805 39.2573C348.156 42.6094 334.406 55.7335 331.402 73.3706C327.462 96.4896 344.013 118.632 367.537 121.792C370.02 122.123 372.488 122.238 374.918 122.138C384.352 121.769 393.22 118.271 400.262 112.512C404.231 109.26 409.484 107.968 414.556 108.914C419.363 109.821 423.839 111.505 427.861 113.804Z" fill="black"/>
<path d="M406.82 11.4251C375.59 -2.52158 337.205 5.10529 314.82 31.5995C315.318 31.5918 315.824 31.6302 316.322 31.7609C323.416 33.6753 328.715 38.6805 333.982 43.3012C335.914 44.9926 337.899 46.6226 339.899 48.2371C341.19 48.4909 353.975 41.9173 364.805 39.2648C373.009 37.2581 380.903 36.9506 385.74 38.2346C395.152 40.7333 405.227 37.8809 411.242 30.6L411.589 30.1848C416.744 23.9342 414.397 14.808 406.82 11.4251Z" fill="black"/>
<path d="M417.672 15.4079C387.122 -2.10621 346.88 1.58422 321.039 26.164C321.552 26.2101 322.065 26.3024 322.564 26.4869C329.643 29.1855 334.541 34.8442 339.454 40.103C341.258 42.0328 343.114 43.9011 345.001 45.754C346.299 46.1538 360.141 40.8104 371.544 39.265C380.186 38.0964 388.322 38.6192 393.152 40.4413C402.54 43.9857 413.197 42.1481 420.163 35.3824L420.563 34.9903C426.517 29.1932 425.091 19.6596 417.672 15.4079Z" fill="black"/>
<path d="M285.029 141.851C285.029 149.032 279.316 154.852 272.267 154.852H199.815C190.154 154.852 182.328 146.879 182.328 137.038V18.7288C182.328 10.1485 189.158 3.18286 197.588 3.18286H272.652C279.49 3.18286 285.037 8.83382 285.037 15.7995C285.037 23.2649 279.097 29.3157 271.769 29.3157H230.698C223.86 29.3157 218.313 34.9667 218.313 41.9323V47.5602C218.313 54.5259 223.86 60.1769 230.698 60.1769H259.958C266.765 60.1769 272.297 65.774 272.343 72.7012C272.395 79.7054 266.833 85.4101 259.958 85.4101H229.799C222.811 85.4101 217.211 91.2918 217.415 98.4112L217.95 116.594C218.154 123.414 223.633 128.834 230.335 128.834H272.275C279.316 128.85 285.029 134.67 285.029 141.851Z" fill="black"/>
<path d="M547.42 26.9708L517.239 83.9955C515.216 87.809 514.16 92.076 514.16 96.4123V135.808C514.16 145.772 508.228 154.929 498.454 155.036H496.514C485.752 155.152 479.33 144.726 480.605 133.839L482.96 96.297C483.42 92.3605 481.458 86.3405 479.503 82.9038L447.632 26.8708C441.632 16.3147 449.104 3.09835 461.081 3.09835C468.371 3.09835 475.073 7.21163 478.477 13.7775L491.028 37.9882C494.273 44.2466 503.096 44.1697 506.235 37.8575L519.133 11.9015C521.82 6.48892 527.239 3.05222 533.193 2.99071C545.352 2.86001 553.186 16.0687 547.42 26.9708Z" fill="black"/>
<path d="M153.273 125.836H121.001C120.639 125.836 120.284 125.951 119.997 126.174C119.967 126.197 119.937 126.22 119.907 126.244C118.948 126.959 119.001 128.412 119.99 129.096C120.692 129.58 121.379 130.134 122.043 130.741C124.133 132.679 123.077 135.985 121.265 137.461C114.428 143.035 106.133 146.01 98.3523 149.547C96.9787 150.17 95.6202 150.831 94.2693 151.5C92.6467 152.307 93.1976 154.791 95.0089 154.791H153.28C160.488 154.791 166.337 148.309 166.337 140.313C166.337 132.317 160.488 125.836 153.273 125.836Z" fill="black"/>
<path d="M89.017 154.852C67.9303 154.852 46.8513 154.86 25.7646 154.844C21.893 154.844 19.0553 152.814 18.4137 149.693C17.493 145.211 20.3232 141.582 24.9571 141.543C33.1457 141.466 41.3343 141.52 49.5154 141.52C50.3682 141.52 51.2135 141.543 52.0663 141.497C56.2776 141.282 59.2889 138.199 59.2964 134.124C59.304 130.134 56.2021 126.989 51.9531 126.943C45.2362 126.859 38.5117 126.92 31.7948 126.92C23.5307 126.92 15.2666 126.943 7.00251 126.897C3.54594 126.874 1.11577 124.836 0.157286 121.346C-0.438936 119.178 0.821431 115.887 3.04783 114.672C4.35348 113.965 5.95347 113.458 7.42515 113.45C25.342 113.381 43.2588 113.419 61.1757 113.427C62.6398 113.427 64.1115 113.45 65.5756 113.365C69.7416 113.112 72.3907 110.182 72.3303 105.969C72.2775 101.925 69.5379 99.0035 65.4322 98.9958C51.1456 98.942 36.8589 99.065 22.5647 98.9343C20.5345 98.9189 18.2402 98.2808 16.5572 97.1583C14.2176 95.5899 13.7043 92.4453 14.6553 89.9543C15.7572 87.0865 17.9458 85.5335 21.1005 85.5258C32.225 85.5027 43.3419 85.5104 54.4663 85.5104C55.855 85.5104 57.2512 85.5335 58.6398 85.4719C62.8209 85.3028 65.7794 82.1275 65.6662 77.9835C65.553 74.0163 62.4511 71.1177 58.3455 71.087C53.9455 71.0485 49.5305 71.21 45.1532 70.8333C41.1909 70.495 38.9947 67.4581 39.2438 63.537C39.4551 60.2233 42.3834 57.6246 46.1267 57.5708C50.3003 57.5093 54.4663 57.5631 58.6398 57.5631C63.1983 57.5631 67.7568 57.5554 72.3077 57.5631C76.8737 57.5708 79.8019 54.5031 79.6887 49.8209C79.5831 45.723 76.3982 43.0705 72.0888 43.0936C61.9077 43.1781 51.7116 43.0936 41.523 43.0551C39.674 43.0474 37.8023 43.1551 35.9834 42.8783C32.1495 42.3017 29.8023 39.4339 30.074 35.9664C30.3608 32.2606 33.2212 29.6543 37.1381 29.6466C45.2513 29.6235 53.3569 29.6773 61.47 29.6543C64.8662 29.6466 68.27 29.685 71.6511 29.4006C75.6737 29.0623 78.0963 25.9331 77.885 21.7814C77.6888 17.9987 74.7303 15.1694 70.8435 15.0771C69.2964 15.0386 67.7492 15.1002 66.2096 15.0156C62.5643 14.8157 59.787 12.0556 59.7115 8.6496C59.6361 5.0745 62.2474 1.94533 65.9605 1.81463C71.9001 1.60704 77.8472 1.75312 83.7868 1.76081C90.6547 1.76081 97.5226 1.71468 104.39 1.79156C110.587 1.86076 114.888 6.29696 114.209 12.5861C113.583 18.4139 112.202 24.1571 111.1 29.9311C109.515 38.2499 107.915 46.5687 106.27 54.8799C103.681 67.9578 101.032 81.0204 98.4433 94.0983C96.5641 103.563 94.6999 113.027 92.9188 122.515C92.2924 125.867 92.4585 125.951 95.8018 125.944C112.556 125.897 129.319 125.836 146.073 125.805C148.028 125.798 149.99 125.951 151.945 125.967C153.598 125.982 155.243 126.182 156.813 126.712C160.299 127.896 162.564 129.619 163.862 132.702C164.797 134.924 164.911 137.415 164.42 139.783C164.118 141.228 163.862 142.689 163.567 144.142C163.009 146.902 161.786 149.508 159.869 151.538C157.998 153.514 155.673 154.775 152.503 154.783C136.903 154.821 121.303 154.821 105.696 154.829C100.134 154.837 94.5716 154.829 89.017 154.829C89.017 154.821 89.017 154.837 89.017 154.852Z" fill="black"/>
<path d="M23.4265 69.4799C18.3473 69.403 15.7737 67.8192 14.8152 64.0596C13.8567 60.2999 16.6416 56.2251 20.4529 55.9483C22.2114 55.8176 23.9925 55.8637 25.7585 55.9022C29.2981 55.9791 32.0453 58.4778 32.3622 61.8453C32.6792 65.2666 30.5509 68.2036 27.0717 69.0186C25.8793 69.303 24.6415 69.3338 23.4265 69.4799Z" fill="black"/>
<path d="M44.4205 0.053983C49.1374 0.0847366 51.9525 2.46045 51.9751 6.42765C51.9978 10.5409 48.9261 13.4318 44.5865 13.3703C40.2922 13.3088 37.296 10.4794 37.3564 6.51992C37.4167 3.06783 40.5714 -0.468827 44.4205 0.053983Z" fill="black"/>
</g>
<defs>
<clipPath id="clip0_680_608">
<rect width="549.354" height="156.067" fill="white"/>
</clipPath>
</defs>
</svg>
