<?xml version="1.0" standalone="no"?>
<!DOCTYPE svg PUBLIC "-//W3C//DTD SVG 20010904//EN"
 "http://www.w3.org/TR/2001/REC-SVG-20010904/DTD/svg10.dtd">
<svg version="1.0" xmlns="http://www.w3.org/2000/svg"
 width="757.000000pt" height="653.000000pt" viewBox="0 0 757.000000 653.000000"
 preserveAspectRatio="xMidYMid meet">

<g transform="translate(0.000000,653.000000) scale(0.100000,-0.100000)"
fill="#000000" stroke="none">
<path d="M2480 5206 c-120 -31 -243 -103 -339 -198 -29 -29 -100 -119 -157
-199 -205 -288 -309 -356 -601 -388 -100 -11 -167 -35 -203 -72 -35 -38 -60
-99 -60 -155 -1 -172 264 -391 542 -448 87 -18 236 -21 287 -6 19 5 37 8 39 5
10 -10 -12 -59 -93 -200 -114 -201 -196 -370 -236 -485 -44 -131 -49 -243 -19
-449 19 -130 22 -179 17 -329 -3 -98 -12 -204 -19 -237 -14 -59 -9 -258 8
-327 4 -17 2 -28 -4 -28 -16 0 -34 55 -40 132 l-7 73 -19 -50 c-10 -27 -97
-205 -191 -395 -211 -423 -335 -684 -335 -705 0 -10 -16 -63 -35 -118 -19 -56
-37 -121 -41 -143 -6 -41 -5 -42 28 -53 20 -6 54 -28 77 -47 l42 -36 280 7
280 8 -22 23 c-26 27 -114 74 -140 74 -30 0 -30 18 0 52 107 123 391 612 522
899 181 398 260 644 374 1164 54 246 52 242 66 228 11 -11 -57 -341 -127 -612
-18 -74 -34 -140 -34 -147 0 -6 33 -31 73 -55 104 -62 171 -112 213 -164 l38
-45 31 48 c49 78 78 113 106 128 44 22 41 3 -6 -44 -25 -24 -61 -72 -80 -106
l-34 -61 19 -55 c10 -30 30 -149 45 -265 14 -115 40 -275 56 -353 30 -145 105
-419 132 -485 9 -19 18 -60 22 -90 6 -47 10 -54 26 -50 23 6 91 -38 114 -74
l17 -25 229 7 c200 7 229 6 229 -7 0 -20 -76 -27 -303 -30 l-167 -2 -33 36
c-34 37 -85 74 -92 66 -3 -2 0 -32 6 -66 l11 -62 329 0 c194 0 329 4 329 9 0
10 -45 68 -70 89 -25 22 -114 62 -137 62 -17 0 -23 7 -28 33 -17 104 -26 175
-30 258 -26 466 -71 924 -110 1111 -9 39 -29 99 -46 132 -70 142 -287 408
-564 695 l-158 162 7 53 c3 29 13 70 21 90 l16 38 -51 61 c-92 112 -101 140
-165 512 -21 117 -30 194 -24 200 17 18 27 -10 49 -145 62 -385 80 -444 164
-537 25 -28 46 -56 46 -61 0 -12 91 -79 225 -165 104 -67 297 -163 403 -201
83 -29 155 -75 200 -127 l31 -36 3 -424 c3 -456 3 -454 55 -478 16 -7 180 -11
488 -11 l465 0 0 -567 c0 -380 4 -581 11 -608 15 -55 91 -127 151 -144 37 -11
256 -13 1090 -10 l1043 4 37 23 c22 13 45 40 57 66 l21 43 -2 1986 -3 1986
-21 28 c-38 51 -81 73 -143 73 l-56 0 -17 48 c-22 62 -85 157 -134 204 -54 51
-147 105 -224 129 -100 32 -241 30 -344 -5 -151 -51 -261 -150 -328 -293 l-39
-82 -478 -3 -479 -3 -44 -30 c-28 -20 -52 -49 -71 -84 l-27 -55 0 -483 0 -483
-465 0 c-519 0 -513 1 -535 -65 -10 -30 -15 -35 -33 -29 -37 11 -268 105 -342
139 -67 30 -74 31 -117 20 -26 -6 -54 -18 -63 -25 -12 -10 -18 -11 -28 -1 -9
10 -6 18 16 37 15 13 37 24 48 24 25 0 24 5 -10 49 -35 44 -71 115 -101 200
l-23 63 -14 -53 c-7 -30 -27 -80 -43 -111 l-30 -58 15 -77 c24 -127 30 -136
132 -232 87 -82 104 -93 182 -121 103 -38 307 -98 362 -106 l39 -7 0 -62 0
-63 -35 -6 c-32 -6 -52 4 -247 127 -117 73 -224 136 -238 140 -14 3 -62 42
-107 87 -97 94 -100 102 -138 345 -34 217 -40 281 -27 289 16 10 19 -1 38
-133 19 -132 20 -133 55 -33 15 40 22 90 24 167 5 120 -4 161 -51 261 -20 41
-29 74 -29 109 0 48 1 50 25 47 14 -2 68 -4 120 -5 82 -2 101 1 137 20 76 41
126 114 153 225 9 36 17 48 36 52 47 12 53 95 9 112 -21 8 -21 157 0 207 22
52 19 123 -6 163 -24 39 -133 95 -269 139 -105 33 -291 43 -380 21z m602 -157
c31 -38 51 -115 28 -107 -6 2 -18 21 -25 42 -7 21 -23 48 -34 60 -23 24 -28
50 -9 44 6 -2 25 -20 40 -39z m-333 -23 c-49 -68 -137 -120 -236 -139 -25 -5
-33 -3 -33 8 0 8 15 17 38 21 63 12 147 60 193 113 50 55 78 53 38 -3z m-169
5 c0 -28 -182 -111 -242 -111 -49 0 -27 23 33 35 30 6 83 27 119 47 67 37 90
45 90 29z m444 -32 c50 -58 66 -115 66 -228 0 -91 1 -96 26 -116 33 -26 26
-65 -11 -65 -24 0 -28 -6 -41 -70 -21 -106 -95 -199 -176 -221 -82 -22 -217
-1 -280 43 -30 21 -34 -3 -5 -26 23 -19 27 -28 21 -50 -5 -22 -11 -26 -28 -22
-11 4 -33 9 -48 12 -16 4 -28 9 -28 13 0 3 9 49 20 101 11 52 20 131 20 174 0
67 -3 83 -21 102 -11 12 -23 40 -26 63 -5 35 -2 44 25 71 17 16 38 30 48 30 9
0 34 -18 54 -40 37 -41 69 -50 88 -27 6 7 14 40 18 75 9 84 28 107 115 132 71
21 109 48 109 75 0 25 17 17 54 -26z m2487 -533 c2 -3 0 -43 -5 -90 l-10 -85
-391 -3 -392 -3 -49 -30 c-37 -23 -56 -44 -76 -84 l-28 -55 0 -383 0 -383 -55
0 -55 0 0 480 c0 509 1 521 48 573 21 23 67 48 107 58 31 7 898 12 906 5z
m-3057 -85 c7 -10 -82 -159 -129 -217 -90 -110 -183 -184 -268 -213 -97 -34
-214 -36 -224 -4 -3 7 26 10 84 9 79 -1 95 2 153 30 117 56 230 171 321 327
43 76 53 85 63 68z m3065 -174 c39 -174 171 -324 347 -394 63 -25 81 -27 199
-27 117 0 137 2 197 26 37 15 84 38 105 53 l38 25 3 -1482 c2 -1007 -1 -1495
-8 -1519 -14 -51 -47 -88 -94 -110 -39 -18 -83 -19 -806 -19 -721 0 -767 1
-805 19 -48 22 -69 44 -90 94 -12 30 -15 94 -15 387 l0 350 385 0 385 0 2
-177 3 -178 135 0 135 0 0 1245 0 1245 -135 0 -135 0 -5 -195 -5 -195 -382 -3
-383 -2 0 382 c0 350 2 386 19 423 20 43 40 64 86 88 26 14 84 16 421 17 l391
0 12 -53z m1026 -3755 c-8 -42 -59 -100 -110 -123 -38 -18 -91 -19 -935 -19
-850 0 -897 1 -935 19 -47 22 -89 64 -104 104 -7 19 -11 221 -11 603 l0 574
55 0 55 0 0 -352 c0 -389 2 -398 66 -461 66 -66 9 -62 874 -62 864 0 808 -4
874 61 66 67 61 -68 64 1603 l2 1514 34 38 c19 20 43 50 53 65 17 27 18 -24
21 -1751 1 -979 0 -1795 -3 -1813z m-1035 2528 l0 -340 -918 0 c-756 0 -921 2
-937 14 -17 12 -17 13 8 20 50 12 31 36 -70 83 -54 25 -99 47 -101 49 -2 1 4
14 13 28 24 36 13 56 -30 56 l-36 0 3 201 c3 185 5 202 22 215 17 12 174 14
1033 14 l1013 0 0 -340z m-2037 -148 c-20 -34 -10 -56 31 -66 12 -3 49 -18 82
-33 l59 -28 -52 -3 c-69 -4 -68 -20 2 -51 30 -13 55 -28 55 -34 0 -8 -58 -5
-113 6 -5 1 -11 -2 -13 -8 -2 -5 17 -23 43 -38 56 -34 50 -46 -12 -22 -56 21
-70 12 -31 -21 15 -14 26 -27 24 -29 -3 -3 -27 2 -55 10 -36 11 -62 28 -92 60
-23 25 -59 57 -80 71 l-39 25 27 82 28 82 44 7 c24 4 58 11 74 16 17 5 31 8
33 7 1 -1 -5 -16 -15 -33z m2037 -577 l0 -95 -489 0 c-513 0 -511 0 -489 -42
8 -17 42 -18 493 -18 l485 0 0 -60 0 -60 -216 0 -215 0 3 -27 3 -28 213 -3
212 -2 0 -140 0 -140 -1012 0 c-557 0 -1018 4 -1024 8 -31 20 -34 54 -34 370
0 175 3 322 7 325 3 4 469 7 1035 7 l1028 0 0 -95z"/>
<path d="M2557 4763 c-4 -3 -2 -12 4 -20 9 -9 8 -17 -1 -28 -14 -17 -4 -58 13
-52 7 2 11 14 9 25 -2 13 3 25 12 28 22 8 20 31 -3 44 -23 12 -26 12 -34 3z"/>
<path d="M2828 4639 c-24 -13 -23 -36 1 -49 40 -21 111 -5 111 25 0 30 -74 46
-112 24z"/>
<path d="M5268 630 c-60 -46 -64 -153 -9 -202 l31 -28 210 0 210 0 31 28 c55
49 51 156 -9 202 -23 18 -41 20 -232 20 -191 0 -209 -2 -232 -20z m459 -32
c32 -30 33 -111 1 -145 -21 -23 -25 -23 -227 -23 -196 0 -206 1 -228 22 -32
30 -33 111 -1 145 21 23 25 23 227 23 196 0 206 -1 228 -22z"/>
<path d="M3679 3187 c-30 -23 -39 -56 -39 -147 0 -95 14 -142 45 -154 9 -3
108 -6 220 -6 257 0 248 -4 253 135 5 111 0 137 -30 165 -20 19 -34 20 -227
20 -146 -1 -211 -4 -222 -13z"/>
<path d="M956 387 c-3 -12 -6 -39 -6 -59 l0 -38 380 0 c262 0 380 3 380 11 0
21 -22 52 -29 41 -4 -7 -106 -15 -290 -21 l-284 -10 -44 39 c-24 21 -57 43
-73 48 -25 9 -29 8 -34 -11z"/>
</g>
</svg>
