<svg width="32" height="32" viewBox="0 0 32 32" fill="none" xmlns="http://www.w3.org/2000/svg">
<path fill-rule="evenodd" clip-rule="evenodd" d="M10.8138 11.652C10.8138 8.64844 13.2487 6.21356 16.2523 6.21356C19.2559 6.21356 21.6908 8.64844 21.6908 11.652C21.6908 14.6556 19.2559 17.0905 16.2523 17.0905C13.2487 17.0905 10.8138 14.6556 10.8138 11.652ZM16.2523 8.38894C14.4501 8.38894 12.9892 9.84987 12.9892 11.652C12.9892 13.4542 14.4501 14.9151 16.2523 14.9151C18.0544 14.9151 19.5154 13.4542 19.5154 11.652C19.5154 9.84987 18.0544 8.38894 16.2523 8.38894Z" fill="#0D1217"/>
<path fill-rule="evenodd" clip-rule="evenodd" d="M0.662048 16.0028C0.662048 7.39253 7.64204 0.412537 16.2523 0.412537C24.8626 0.412537 31.8425 7.39253 31.8425 16.0028C31.8425 24.613 24.8626 31.593 16.2523 31.593C7.64204 31.593 0.662048 24.613 0.662048 16.0028ZM16.2523 2.58792C8.84347 2.58792 2.83743 8.59396 2.83743 16.0028C2.83743 19.6945 4.32868 23.038 6.74167 25.4636C7.00329 24.0523 7.51732 22.7217 8.54907 21.6517C10.0924 20.0512 12.5602 19.2659 16.2522 19.2659C19.9443 19.2659 22.4121 20.0512 23.9554 21.6517C24.9872 22.7217 25.5012 24.0524 25.7628 25.4637C28.1759 23.0381 29.6672 19.6946 29.6672 16.0028C29.6672 8.59396 23.6611 2.58792 16.2523 2.58792ZM23.7845 27.1051C23.6367 25.3475 23.2551 24.0594 22.3894 23.1617C21.4475 22.1849 19.7023 21.4412 16.2522 21.4412C12.8021 21.4412 11.0569 22.1849 10.115 23.1617C9.2494 24.0594 8.86775 25.3474 8.71999 27.105C10.8673 28.5646 13.4602 29.4176 16.2523 29.4176C19.0444 29.4176 21.6372 28.5647 23.7845 27.1051Z" fill="#0D1217"/>
</svg>
